<?xml version="1.0" encoding="utf-8"?>
<!-- Generator: Adobe Illustrator 16.0.0, SVG Export Plug-In . SVG Version: 6.00 Build 0)  -->
<!DOCTYPE svg PUBLIC "-//W3C//DTD SVG 1.1//EN" "http://www.w3.org/Graphics/SVG/1.1/DTD/svg11.dtd">
<svg version="1.1" id="Layer_1" xmlns="http://www.w3.org/2000/svg" xmlns:xlink="http://www.w3.org/1999/xlink" x="0px" y="0px"
	 width="848px" height="410px" viewBox="0 0 848 410" enable-background="new 0 0 848 410" xml:space="preserve">
<polygon fill="#7DFDD0" points="56,198.25 156.75,141 256.875,163 356.938,103 456.969,179 556.984,122 656.492,47 756,52 756,363 
	56,363.5 "/>
<polygon fill="#FF7799" points="56.5,250.5 157,205.25 257,243.5 357,182.5 457,205.25 557,250.5 657,294 757,182.5 756,363 
	56,363.5 "/>
<g>
	<g>
		<polyline fill="none" stroke="#000000" stroke-miterlimit="10" points="56.5,40 56.5,363.5 772,363.5 		"/>
		<g>
			<polygon points="51.514,42 56.5,33.365 61.486,42 			"/>
		</g>
		<g>
			<polygon points="770,368.486 778.635,363.5 770,358.514 			"/>
		</g>
	</g>
</g>
<g>
	<g>
		<line fill="none" stroke="#979797" stroke-miterlimit="10" x1="46" y1="65.5" x2="48" y2="65.5"/>
		<line fill="none" stroke="#979797" stroke-miterlimit="10" stroke-dasharray="4,4" x1="52" y1="65.5" x2="775" y2="65.5"/>
		<line fill="none" stroke="#979797" stroke-miterlimit="10" x1="777" y1="65.5" x2="779" y2="65.5"/>
	</g>
</g>
<g>
	<g>
		<line fill="none" stroke="#000000" stroke-miterlimit="10" x1="46" y1="163.5" x2="48" y2="163.5"/>
		<line fill="none" stroke="#000000" stroke-miterlimit="10" stroke-dasharray="4,4" x1="52" y1="163.5" x2="775" y2="163.5"/>
		<line fill="none" stroke="#000000" stroke-miterlimit="10" x1="777" y1="163.5" x2="779" y2="163.5"/>
	</g>
</g>
<g>
	<g>
		<line fill="none" stroke="#000000" stroke-miterlimit="10" x1="46" y1="263.5" x2="48" y2="263.5"/>
		<line fill="none" stroke="#000000" stroke-miterlimit="10" stroke-dasharray="4,4" x1="52" y1="263.5" x2="775" y2="263.5"/>
		<line fill="none" stroke="#000000" stroke-miterlimit="10" x1="777" y1="263.5" x2="779" y2="263.5"/>
	</g>
</g>
<rect x="789" y="381.5" fill="none" width="147" height="36"/>
<text transform="matrix(1 0 0 1 789 390.0918)" font-family="'ArialMT'" font-size="12">TEMPO</text>
<rect x="38.5" y="-78" fill="none" width="36" height="147"/>
<text transform="matrix(4.489659e-11 -1 1 4.489659e-11 47.0918 69)" font-family="'ArialMT'" font-size="12">N° MORTI</text>
<rect x="644" y="369" fill="none" width="38" height="25"/>
<text transform="matrix(1 0 0 1 644 377.5918)" font-family="'ArialMT'" font-size="12">2013</text>
<rect x="741" y="369" fill="none" width="38" height="25"/>
<text transform="matrix(1 0 0 1 741 377.5918)" font-family="'ArialMT'" font-size="12">2014</text>
<rect x="543" y="369" fill="none" width="38" height="25"/>
<text transform="matrix(1 0 0 1 543 377.5918)" font-family="'ArialMT'" font-size="12">2012</text>
<rect x="444" y="369" fill="none" width="38" height="25"/>
<text transform="matrix(1 0 0 1 444 377.5918)" font-family="'ArialMT'" font-size="12">2011</text>
<rect x="343" y="369" fill="none" width="38" height="25"/>
<text transform="matrix(1 0 0 1 343 377.5918)" font-family="'ArialMT'" font-size="12">2010</text>
<rect x="244" y="369" fill="none" width="38" height="25"/>
<text transform="matrix(1 0 0 1 244 377.5918)" font-family="'ArialMT'" font-size="12">2009</text>
<rect x="144" y="369" fill="none" width="38" height="25"/>
<text transform="matrix(1 0 0 1 144 377.5918)" font-family="'ArialMT'" font-size="12">2008</text>
<rect x="46" y="369" fill="none" width="38" height="25"/>
<text transform="matrix(1 0 0 1 46 377.5918)" font-family="'ArialMT'" font-size="12">2007</text>
<rect x="12" y="260.5" fill="none" width="38" height="25"/>
<text transform="matrix(1 0 0 1 12 269.0918)" font-family="'ArialMT'" font-size="12">50</text>
<rect x="12" y="157.5" fill="none" width="38" height="25"/>
<text transform="matrix(1 0 0 1 12 166.0918)" font-family="'ArialMT'" font-size="12">100</text>
</svg>
