<?xml version="1.0" encoding="utf-8"?>
<!-- Generator: Adobe Illustrator 16.0.0, SVG Export Plug-In . SVG Version: 6.00 Build 0)  -->
<!DOCTYPE svg PUBLIC "-//W3C//DTD SVG 1.1//EN" "http://www.w3.org/Graphics/SVG/1.1/DTD/svg11.dtd">
<svg version="1.1" id="Layer_1" xmlns="http://www.w3.org/2000/svg" xmlns:xlink="http://www.w3.org/1999/xlink" x="0px" y="0px"
	 width="848px" height="410px" viewBox="0 0 848 410" enable-background="new 0 0 848 410" xml:space="preserve">
<rect x="87" y="64" fill="#7DFDD0" width="20" height="20"/>
<rect x="430" y="131" fill="#7DFDD0" width="20" height="20"/>
<rect x="430" y="178" fill="#FF7799" width="20" height="20"/>
<rect x="87" y="92" fill="#7DFDD0" width="20" height="20"/>
<rect x="87" y="121" fill="#7DFDD0" width="20" height="20"/>
<rect x="87" y="149" fill="#7DFDD0" width="20" height="20"/>
<rect x="87" y="178" fill="#7DFDD0" width="20" height="20"/>
<rect x="87" y="206" fill="#7DFDD0" width="20" height="20"/>
<rect x="87" y="235" fill="#7DFDD0" width="20" height="20"/>
<rect x="87" y="263" fill="#7DFDD0" width="20" height="20"/>
<rect x="87" y="292" fill="#7DFDD0" width="20" height="20"/>
<rect x="87" y="320" fill="#7DFDD0" width="20" height="20"/>
<rect x="115" y="64" fill="#7DFDD0" width="20" height="20"/>
<rect x="144" y="64" fill="#7DFDD0" width="20" height="20"/>
<rect x="172" y="64" fill="#7DFDD0" width="20" height="20"/>
<rect x="201" y="64" fill="#7DFDD0" width="20" height="20"/>
<rect x="229" y="64" fill="#7DFDD0" width="20" height="20"/>
<rect x="258" y="64" fill="#FF7799" width="20" height="20"/>
<rect x="286" y="64" fill="#FF7799" width="20" height="20"/>
<rect x="315" y="64" fill="#FF7799" width="20" height="20"/>
<rect x="343" y="64" fill="#FF7799" width="20" height="20"/>
<rect x="115" y="92" fill="#7DFDD0" width="20" height="20"/>
<rect x="144" y="92" fill="#7DFDD0" width="20" height="20"/>
<rect x="172" y="92" fill="#7DFDD0" width="20" height="20"/>
<rect x="201" y="92" fill="#7DFDD0" width="20" height="20"/>
<rect x="229" y="92" fill="#7DFDD0" width="20" height="20"/>
<rect x="258" y="92" fill="#FF7799" width="20" height="20"/>
<rect x="286" y="92" fill="#FF7799" width="20" height="20"/>
<rect x="315" y="92" fill="#FF7799" width="20" height="20"/>
<rect x="343" y="92" fill="#FF7799" width="20" height="20"/>
<rect x="115" y="121" fill="#7DFDD0" width="20" height="20"/>
<rect x="144" y="121" fill="#7DFDD0" width="20" height="20"/>
<rect x="172" y="121" fill="#7DFDD0" width="20" height="20"/>
<rect x="201" y="121" fill="#7DFDD0" width="20" height="20"/>
<rect x="229" y="121" fill="#7DFDD0" width="20" height="20"/>
<rect x="258" y="121" fill="#FF7799" width="20" height="20"/>
<rect x="286" y="121" fill="#FF7799" width="20" height="20"/>
<rect x="315" y="121" fill="#FF7799" width="20" height="20"/>
<rect x="343" y="121" fill="#FF7799" width="20" height="20"/>
<rect x="115" y="149" fill="#7DFDD0" width="20" height="20"/>
<rect x="144" y="149" fill="#7DFDD0" width="20" height="20"/>
<rect x="172" y="149" fill="#7DFDD0" width="20" height="20"/>
<rect x="201" y="149" fill="#7DFDD0" width="20" height="20"/>
<rect x="229" y="149" fill="#7DFDD0" width="20" height="20"/>
<rect x="258" y="149" fill="#FF7799" width="20" height="20"/>
<rect x="286" y="149" fill="#FF7799" width="20" height="20"/>
<rect x="315" y="149" fill="#FF7799" width="20" height="20"/>
<rect x="343" y="149" fill="#FF7799" width="20" height="20"/>
<rect x="115" y="178" fill="#7DFDD0" width="20" height="20"/>
<rect x="144" y="178" fill="#7DFDD0" width="20" height="20"/>
<rect x="172" y="178" fill="#7DFDD0" width="20" height="20"/>
<rect x="201" y="178" fill="#7DFDD0" width="20" height="20"/>
<rect x="229" y="178" fill="#7DFDD0" width="20" height="20"/>
<rect x="258" y="178" fill="#FF7799" width="20" height="20"/>
<rect x="286" y="178" fill="#FF7799" width="20" height="20"/>
<rect x="315" y="178" fill="#FF7799" width="20" height="20"/>
<rect x="343" y="178" fill="#FF7799" width="20" height="20"/>
<rect x="115" y="206" fill="#7DFDD0" width="20" height="20"/>
<rect x="144" y="206" fill="#7DFDD0" width="20" height="20"/>
<rect x="172" y="206" fill="#7DFDD0" width="20" height="20"/>
<rect x="201" y="206" fill="#7DFDD0" width="20" height="20"/>
<rect x="229" y="206" fill="#FF7799" width="20" height="20"/>
<rect x="258" y="206" fill="#FF7799" width="20" height="20"/>
<rect x="286" y="206" fill="#FF7799" width="20" height="20"/>
<rect x="315" y="206" fill="#FF7799" width="20" height="20"/>
<rect x="343" y="206" fill="#FF7799" width="20" height="20"/>
<rect x="115" y="235" fill="#7DFDD0" width="20" height="20"/>
<rect x="144" y="235" fill="#7DFDD0" width="20" height="20"/>
<rect x="172" y="235" fill="#7DFDD0" width="20" height="20"/>
<rect x="201" y="235" fill="#7DFDD0" width="20" height="20"/>
<rect x="229" y="235" fill="#FF7799" width="20" height="20"/>
<rect x="258" y="235" fill="#FF7799" width="20" height="20"/>
<rect x="286" y="235" fill="#FF7799" width="20" height="20"/>
<rect x="315" y="235" fill="#FF7799" width="20" height="20"/>
<rect x="343" y="235" fill="#FF7799" width="20" height="20"/>
<rect x="115" y="263" fill="#7DFDD0" width="20" height="20"/>
<rect x="144" y="263" fill="#7DFDD0" width="20" height="20"/>
<rect x="172" y="263" fill="#7DFDD0" width="20" height="20"/>
<rect x="201" y="263" fill="#7DFDD0" width="20" height="20"/>
<rect x="229" y="263" fill="#FF7799" width="20" height="20"/>
<rect x="258" y="263" fill="#FF7799" width="20" height="20"/>
<rect x="286" y="263" fill="#FF7799" width="20" height="20"/>
<rect x="315" y="263" fill="#FF7799" width="20" height="20"/>
<rect x="343" y="263" fill="#FF7799" width="20" height="20"/>
<rect x="115" y="292" fill="#7DFDD0" width="20" height="20"/>
<rect x="144" y="292" fill="#7DFDD0" width="20" height="20"/>
<rect x="172" y="292" fill="#7DFDD0" width="20" height="20"/>
<rect x="201" y="292" fill="#7DFDD0" width="20" height="20"/>
<rect x="229" y="292" fill="#FF7799" width="20" height="20"/>
<rect x="258" y="292" fill="#FF7799" width="20" height="20"/>
<rect x="286" y="292" fill="#FF7799" width="20" height="20"/>
<rect x="315" y="292" fill="#FF7799" width="20" height="20"/>
<rect x="343" y="292" fill="#FF7799" width="20" height="20"/>
<rect x="115" y="320" fill="#7DFDD0" width="20" height="20"/>
<rect x="144" y="320" fill="#7DFDD0" width="20" height="20"/>
<rect x="172" y="320" fill="#7DFDD0" width="20" height="20"/>
<rect x="201" y="320" fill="#7DFDD0" width="20" height="20"/>
<rect x="229" y="320" fill="#FF7799" width="20" height="20"/>
<rect x="258" y="320" fill="#FF7799" width="20" height="20"/>
<rect x="286" y="320" fill="#FF7799" width="20" height="20"/>
<rect x="315" y="320" fill="#FF7799" width="20" height="20"/>
<rect x="343" y="320" fill="#FF7799" width="20" height="20"/>
<rect x="140" y="350.5" fill="none" width="113" height="81"/>
<text transform="matrix(1 0 0 1 140 372.9004)" font-family="'BebasNeue'" font-size="32">55%</text>
<rect x="469" y="128.5" fill="none" width="150" height="30.5"/>
<text transform="matrix(1 0 0 1 469 150.8999)" font-family="'BebasNeue'" font-size="32">condannaTI</text>
<rect x="469" y="175.5" fill="none" width="269" height="81"/>
<text transform="matrix(1 0 0 1 469 197.8999)" font-family="'BebasNeue'" font-size="32">IN ATTESA DI GIUDIZIO</text>
<rect x="286.5" y="350.5" fill="none" width="113" height="81"/>
<text transform="matrix(1 0 0 1 286.5 372.9004)" font-family="'BebasNeue'" font-size="32">45%</text>
</svg>
